<svg id="Layer_1" data-name="Layer 1" xmlns="http://www.w3.org/2000/svg" width="4.49in" height="2.57in" viewBox="0 0 323.49 185.11"><defs><style>.cls-1{fill:#231f20;}</style></defs><path class="cls-1" d="M439.8,55a11.63,11.63,0,0,0-7.93.68c-5.7,2.37-11.28,5.14-17.11,7A203.76,203.76,0,0,1,393.62,68c-7.06,1.45-14.21,2.4-21.33,3.47-9.84,1.48-9.15,3.27-21,.71a61.37,61.37,0,0,0-13.61-1.27c-6,.21-18.51-.11-23.82-.22-14.59-.3-29.17-.3-43.76-.39-10.56-.06-21.07-.93-31.35-3.77a43.14,43.14,0,0,1-10.94-4.9A89.73,89.73,0,0,1,216.55,53c-4.49-3.9-8.74-8.16-13.11-12.24-2.82-2.65-5.54-5.48-8.54-7.83-9.22-7.22-23.36-10.43-36.23-9.49-5.18.38-5.32.31-10.36,2.25a26.85,26.85,0,0,0-6.47,3.8c-3.57,2.56-5.43,6.51-6,11.29a14.94,14.94,0,0,1-.86,3.47c-1.17,2.93-3.66,3.12-6,3.59-1.24.25-2.48.43-3.7.7s-4.88,1.78-5,3.1c-.58,5.69-.88,13.38,1.39,18.62,2.82,6.57,10.88,7.38,17.16,8.35a54.51,54.51,0,0,0,15.25.32c1.19,5.22,3.09,9,5.32,10.28a65,65,0,0,0,1.14,12.69c.65,3.33,1.73,6.77,4.38,9,1.67,1.38,5.13.79,5.14,2.81,0,2.29-2.51,6.7-1.22,8.31a1.73,1.73,0,0,1,.48.9c0,3.73-1.09,5.09-1.42,8.78-.15,1.68,2,3,1.57,4.77-.73,3.27-2.59,7.24,0,8.07.36.11.47.93,1.11,1.07-.21,1-.42,2-.62,3-.32,1.54-.71,3.08-.92,4.64a4.75,4.75,0,0,0,1.5,4.1,3.13,3.13,0,0,1,.37,4.11c-1.38,2-2.75,4-4.18,5.9-2.83,3.85-5.58,7.8-8.59,11.46-2.62,3.19-5.47,6.13-8.35,9-2.39,2.4-5.39,3.39-8.43,4.25a11.14,11.14,0,0,0-6.55,5,2.68,2.68,0,0,0-.36,1.05,22.07,22.07,0,0,0,.82,10.31h21.47c3.27-4.85,7.9-6.28,12.9-6.75.92-.08,1.84-.12,2.77-.13a7.4,7.4,0,0,0,4.93-2.24,4,4,0,0,1,4.21-.76c2.91.91,4.11-.14,4.27-3.58a10.38,10.38,0,0,1,.34-2.69,1.63,1.63,0,0,1,2.83-.81c2,1.87,2.56,1.69,3.93-.84.93-1.76,3.62,0,4.72-1.67,1-1.4.06-4.76,1.12-3.51.16.19.3.42.46.6,2.1,2.4,3.36,2,4.22-1.26.42-1.63,3.22-.09,3.67-1.72.37-1.36-1.74-6-1.12-7.18.77-1.5,1.41-1.53,2.56-.48.43.39.9.74,1.36,1.09,1.64,1.26,2.56.9,3.14-1.3a16.87,16.87,0,0,0,.28-2c.3-2,.56-4.18,2.38-5.12,2.09-1.09,4.08-.28,5.85,1.2a20.63,20.63,0,0,1,1.95,2c1.39,1.55,3.27,1.23,4.15-.78.39-.89.52-2,.94-2.82a6.51,6.51,0,0,1,1.29-1.44,5.5,5.5,0,0,1,1,1.45c1.24,4.26,2.36,8.57,3.65,12.81,1.16,3.85,2.32,7.72,3.78,11.43a27.9,27.9,0,0,0,5.67,9.49c1.2,1.23,2.69,2.09,3.88,3.32a36.52,36.52,0,0,1,2.83,3.73H295a5.09,5.09,0,0,1,2.81-5.11c4-2.25,8.05-4.58,12.48-5.6.83-.19,1.92-2.47,2.95-4.75,1.58,1,2.86,1.25,3.58.58.91-.84.75-3-.23-5.78,2.28-.86,3.79,2.57,6.32.44a5.11,5.11,0,0,0,2-4.63c-.07-.85-.06-1.71-.11-2.56-.08-1.41.56-1.63,1.57-1.34a19.42,19.42,0,0,0,2.85.7c1.63.19,2.45-.59,2.34-2.45a60.82,60.82,0,0,0-.79-6.15c-.34-2.09.11-3,1.92-2.8,3,.37,5.05-1.14,6.6-3.88a1.73,1.73,0,0,1,2.32-.86c3.79,1.36,7.67,2.49,11.35,4.17,4.11,1.87,8.08,4.15,12,6.45a18.81,18.81,0,0,1,4,3.4A53.66,53.66,0,0,1,377.47,189a93,93,0,0,0,11.81,16.13,29,29,0,0,1,2.18,3.2h6.41c.71-1.6,1.33-3.28,2.17-4.79,2-3.62,1.65-7.56,1.15-11.44-.44-3.44-2.23-6.22-4.09-8.87-.17-.24-.43-.4-.58-.66-2.56-4.44-4.59-9.1-4.57-14.62a38,38,0,0,0-.23-3.84c-.39-3.87-1.93-6.84-5-8.8-.8-.51.3-.36.14-1.34-.24-1.43.1-2.19-.85-2.84-.79-.55-4.46-2.41-5-3.24-.27-.37,2,.44,2.21.08.63-1-2.18-3.37-2.84-3.82a18.86,18.86,0,0,0-2.5-1.35c-2-1,1,.18,1.65-2.17s-3.38-6-5.33-7.07,1,.08,1.84-1.95-2.95-5.8-4.65-7.77a16.11,16.11,0,0,1-2.27-3.14,50.51,50.51,0,0,1-1.9-4.76c1,.28,1.71.27,2.16.68a9.67,9.67,0,0,0,1.59,1.06s0,0,0,0c2.22,2.69,4.25,4,5.4,3.25,1.37-.91,1.13-4.55-.36-9.14,3.2,5.27,6.62,8.41,8.25,7.33.67-.45.95-1.55.89-3.11,3.27,1.26,7.26,2.26,7.71.49.38-1.49-3.89-8.78-3.72-10.54,1.49,1,7.29,7.73,8.85,8.81,1.15.8,2.36,1.85,3.72.92a2.7,2.7,0,0,0,.58-.54l.18-.1c2-1.32.61-8.3-3-15.62a8.59,8.59,0,0,1,.83.31c3.25,6.28,7.12,10.59,9.25,10.42h0a1.69,1.69,0,0,0,1,.11,2.51,2.51,0,0,0,2-2.5,41.14,41.14,0,0,0,0-4.58c0-1-2.65-5.69-2.65-6.67-1.88-2.54-1.49-2.6-.45-1.86,3.66,7.26,8.21,12.06,10.17,10.75l.14-.11a3.28,3.28,0,0,0,1.77-2.29,55.57,55.57,0,0,0,1.11-6.1,40,40,0,0,0,.5-4.52,11.72,11.72,0,0,0-.45-2.56c.26.19.48.37.69.54,0,0,0,0,0,0,3.41,6,7,7,8.74,5.85,1.43-1,1.27-4.1-.44-9,0-1.33-1.31-2.57,1.2-1,1.4.9,3.91,3.14,4.94,1.73,2.46-3.36,3-12.66,4-17a51,51,0,0,0,1.54-11A5.32,5.32,0,0,0,439.8,55ZM295.06,176.81a26,26,0,0,1-7,12.33,14.2,14.2,0,0,1-6.91,3.52,20.42,20.42,0,0,0-8.1,3,3.26,3.26,0,0,1-3.12.07c-2.89-1.78-5.63-3.86-8.39-5.9a2.55,2.55,0,0,1-.87-1.46c-.45-2.4,2.22-5.43.33-6.51-6.73-3.83-1.45-5.22-.71-6.48s-2.89-3.94-3.55-5.28c-1-2.12,1.44-3,.46-5.13a13.08,13.08,0,0,1-.46-1.42l.24-.24,2.12,1.62c1.25,1,3.12-3.38,4.45-2.55,2.89,1.8,5.49,5.86,6,2.07.13-1.06-1-2.53.21-2.93s2,.56,2.69,1.53a10,10,0,0,0,1.14,1.41c.82.75,1.65,1.67,2.85,1.05a3.5,3.5,0,0,0,1.91-3.34c.06-1.3,3.75,2.33,4.32,1.17.67-1.34,1-4.07,2-3.1-.68-.86.77.74,0,0,2.85,3.62,5.67,7.28,8.5,10.91.18.23.44.37.62.59A5.2,5.2,0,0,1,295.06,176.81Zm-26.35-38.74c-29.63,0-53.64-11.53-53.64-25.75s24-25.74,53.64-25.74,53.63,11.53,53.63,25.74S298.33,138.07,268.71,138.07Z" transform="translate(-119.84 -23.26)"/></svg>